<?xml version="1.0" standalone="no"?>
<!DOCTYPE svg PUBLIC "-//W3C//DTD SVG 20010904//EN"
 "http://www.w3.org/TR/2001/REC-SVG-20010904/DTD/svg10.dtd">
<svg version="1.0" xmlns="http://www.w3.org/2000/svg"
 width="700.000000pt" height="700.000000pt" viewBox="0 0 700.000000 700.000000"
 preserveAspectRatio="xMidYMid meet">
<metadata>
Created by potrace 1.11, written by Peter Selinger 2001-2013
</metadata>
<g transform="translate(0.000000,700.000000) scale(0.100000,-0.100000)"
fill="#000000" stroke="none">
<path d="M3985 6990 c-29 -11 -46 -35 -54 -72 -5 -24 -16 -37 -46 -53 -49 -25
-63 -67 -46 -135 11 -40 38 -70 232 -262 120 -120 216 -218 212 -218 -3 0 -85
52 -180 116 -96 64 -195 123 -219 131 -65 22 -129 13 -165 -23 -63 -64 -42
-115 86 -210 121 -89 200 -159 322 -282 135 -135 161 -185 95 -181 -42 3 -127
-10 -251 -38 -165 -36 -182 -45 -206 -112 -8 -23 -15 -42 -16 -44 -1 -1 3 -12
9 -24 9 -16 33 -28 85 -43 244 -70 415 -140 472 -193 90 -85 263 -180 399
-222 83 -25 86 -27 108 -72 18 -35 35 -52 73 -72 49 -26 51 -28 74 -106 35
-120 45 -164 38 -171 -3 -4 -86 -30 -183 -59 -97 -29 -180 -57 -185 -62 -4 -4
35 -84 87 -178 53 -93 112 -199 131 -235 90 -165 92 -166 152 -135 29 15 41
11 41 -11 0 -7 -20 -42 -45 -78 -25 -37 -45 -72 -45 -79 0 -8 22 -51 50 -96
l50 -82 -17 -52 c-16 -48 -17 -49 -26 -26 -88 221 -276 455 -445 553 -85 50
-141 71 -221 83 -67 10 -172 7 -230 -7 -27 -6 -55 -9 -61 -5 -6 3 -28 31 -50
60 -75 102 -235 203 -395 250 -72 22 -113 27 -205 29 -272 3 -356 -20 -616
-170 -118 -67 -163 -102 -269 -209 -193 -194 -298 -330 -395 -517 -24 -48 -47
-85 -49 -82 -3 3 -6 15 -8 27 -2 12 -9 56 -16 97 -7 42 -12 80 -10 86 2 6 22
8 53 4 27 -4 54 -4 59 -1 5 3 16 42 26 86 9 44 35 149 57 233 23 84 38 155 35
158 -3 3 -86 26 -184 51 -98 24 -182 48 -187 53 -9 9 20 147 51 245 9 28 29
65 44 83 16 18 29 42 29 52 0 52 12 64 111 116 146 78 152 85 279 334 146 288
202 371 345 517 65 65 121 128 126 141 15 39 1 85 -40 125 -22 22 -53 42 -71
46 -32 6 -24 13 246 187 153 100 309 200 347 224 37 24 67 46 67 50 0 10 -40
50 -50 50 -8 0 -277 -164 -370 -225 -19 -13 -181 -114 -359 -224 -259 -161
-327 -199 -336 -189 -15 16 -37 78 -69 187 l-25 84 29 26 c15 14 75 69 133
121 57 52 114 112 126 133 37 62 26 127 -20 127 -11 0 -77 -29 -147 -64 -169
-84 -335 -148 -543 -210 -48 -15 -48 -14 -86 16 -59 47 -69 50 -106 35 -42
-18 -141 -143 -243 -309 -42 -68 -85 -135 -96 -151 l-20 -28 -19 25 c-10 13
-19 26 -19 29 0 3 -20 40 -45 81 -25 42 -45 78 -45 80 0 10 -107 185 -133 218
-31 39 -82 63 -110 52 -22 -8 -40 -77 -33 -128 23 -163 106 -474 217 -812 32
-99 59 -187 59 -195 0 -8 -13 -23 -30 -32 -36 -22 -37 -28 -5 -94 25 -56 35
-62 55 -38 7 8 18 15 25 15 6 0 39 -64 73 -142 l61 -143 -24 -85 c-13 -47 -29
-103 -35 -126 l-10 -41 -132 33 c-153 39 -168 40 -169 17 0 -10 -2 -29 -4 -43
-1 -14 -6 -63 -9 -110 -8 -106 -15 -186 -21 -225 -3 -24 -17 -181 -17 -205 -1
-34 5 -38 59 -46 32 -4 61 -8 66 -10 4 -1 17 -2 30 -3 12 -1 28 -5 35 -10 13
-8 13 -9 -24 -212 -4 -20 5 -39 31 -74 49 -63 59 -88 47 -111 -9 -19 -8 -228
3 -549 3 -88 8 -290 10 -449 2 -159 8 -292 12 -297 4 -4 44 -20 88 -35 98 -34
125 -59 125 -112 0 -27 7 -44 23 -59 22 -20 403 -303 664 -492 73 -53 135
-101 137 -108 3 -7 -4 -34 -16 -60 l-21 -47 29 -24 c16 -13 39 -33 52 -43 24
-21 30 -69 8 -69 -8 0 -58 9 -112 20 -55 10 -121 22 -149 25 -27 3 -61 8 -75
10 -32 6 -249 17 -362 20 -84 1 -88 0 -88 -21 0 -16 11 -25 48 -39 48 -18 228
-110 292 -150 42 -26 100 -47 100 -36 0 4 -49 47 -110 95 -60 48 -112 91 -115
96 -8 14 147 -4 298 -35 176 -36 781 -209 817 -235 15 -11 30 -29 33 -40 3
-11 2 -18 -1 -16 -8 4 -74 13 -162 21 -58 5 -141 14 -200 20 -43 5 -501 5
-550 1 -19 -2 -68 -7 -107 -10 -40 -4 -81 -9 -91 -11 -20 -3 -167 -18 -189
-18 -16 0 -17 -23 -2 -33 6 -4 143 -8 303 -10 271 -2 570 -12 620 -19 11 -2
44 -6 71 -10 28 -3 208 -38 400 -76 193 -39 361 -73 375 -75 57 -11 206 -47
214 -52 5 -3 -1 -12 -12 -21 -25 -19 -73 -141 -137 -349 -40 -129 -45 -154
-34 -168 32 -38 96 -33 118 9 6 12 16 47 21 77 6 30 14 57 18 61 4 4 48 23 97
44 100 42 142 70 197 129 35 37 41 51 53 113 2 13 30 47 62 75 32 29 89 84
127 121 38 38 98 93 134 122 l64 54 52 -21 c28 -11 63 -25 79 -30 15 -6 27
-13 27 -17 0 -10 -245 -159 -337 -206 -142 -72 -237 -236 -237 -410 0 -174 83
-213 267 -125 102 49 220 200 246 315 26 118 21 153 -30 217 l-29 37 37 24
c61 39 258 131 393 185 252 101 675 235 1065 337 77 21 142 39 145 42 13 13
-264 -23 -338 -43 -37 -10 -18 17 43 61 30 22 55 42 55 46 0 10 75 59 98 64
19 3 132 72 132 80 0 4 -137 -23 -164 -32 -11 -4 -25 -8 -31 -9 -49 -11 -418
-148 -510 -189 -236 -105 -349 -158 -462 -216 l-133 -67 -5 32 c-3 17 -6 53
-8 80 l-2 49 210 106 c184 94 823 376 831 368 2 -2 -7 -19 -20 -38 -32 -46
-86 -152 -81 -158 2 -2 59 53 127 121 68 69 141 139 163 156 22 17 38 32 35
35 -3 3 -57 -6 -120 -19 -63 -14 -120 -22 -126 -20 -7 3 -10 23 -8 53 2 26 6
76 8 111 4 47 20 95 65 200 56 130 71 185 86 322 9 81 14 107 35 190 10 41 21
91 24 110 12 79 37 198 52 248 19 66 107 292 173 444 54 124 89 213 97 250 24
103 24 113 5 178 -16 52 -20 90 -18 182 1 83 -2 121 -10 129 -18 18 -16 54 2
69 31 25 15 54 -103 189 l-54 61 29 10 c15 6 48 18 73 27 70 25 65 15 75 157
3 50 8 111 10 136 2 25 7 83 10 130 3 47 8 106 11 132 3 25 1 48 -3 51 -4 3
-80 -18 -168 -45 -247 -77 -282 -86 -292 -79 -16 9 -114 256 -184 462 -21 61
-22 70 -10 122 12 50 11 151 -4 267 -12 100 -17 131 -26 180 -36 192 -84 341
-162 500 -77 158 -237 429 -285 482 -40 45 -101 77 -145 78 -35 0 -73 -39 -81
-85 -7 -35 3 -62 130 -359 19 -44 34 -81 34 -84 0 -2 -30 23 -67 56 -132 114
-296 229 -468 324 -188 105 -238 127 -306 133 -35 4 -73 8 -84 9 -11 2 -29 0
-40 -4z m180 -90 c6 -4 57 -31 115 -61 151 -77 312 -173 412 -246 88 -65 178
-155 178 -178 0 -8 -12 -23 -26 -34 -17 -13 -24 -26 -20 -37 5 -13 16 -14 61
-9 58 8 82 -1 124 -46 11 -12 26 -19 35 -16 35 14 -13 199 -115 432 -38 88
-69 165 -69 171 0 5 6 19 14 29 13 19 15 18 52 -6 71 -48 303 -455 390 -686
25 -65 88 -308 98 -378 3 -22 7 -94 8 -160 2 -100 -2 -133 -21 -195 l-22 -75
31 -70 c18 -38 66 -155 107 -259 66 -165 73 -191 60 -201 -22 -16 -436 -138
-450 -132 -7 3 -34 67 -61 143 -57 162 -70 187 -94 180 -25 -8 -36 3 -65 59
-36 73 -55 86 -136 100 -88 15 -217 56 -257 82 -24 15 -103 68 -175 117 -133
90 -147 96 -291 121 -17 3 -34 7 -37 9 -3 2 -24 7 -46 10 -108 17 -136 36
-115 76 11 21 57 36 135 45 28 3 61 7 75 10 113 20 292 25 351 10 l46 -12 114
73 c63 41 114 79 114 86 0 25 -114 11 -182 -22 -68 -34 -108 -34 -133 -1 -113
144 -127 159 -385 381 -71 62 -142 123 -157 136 -34 29 -39 74 -8 74 29 0 133
-54 220 -115 72 -50 375 -235 385 -235 3 0 26 -13 52 -29 68 -41 89 -46 95
-23 3 11 1 28 -5 38 -8 15 -114 142 -137 164 -3 3 -43 48 -90 100 -156 175
-184 204 -287 306 -85 84 -103 107 -103 131 0 53 21 59 87 24 69 -38 546 -393
620 -462 56 -53 54 -52 77 -43 54 21 -47 127 -342 358 -63 49 -153 111 -200
138 -91 52 -142 93 -142 114 0 7 7 19 15 27 12 12 22 13 52 5 21 -5 43 -14 48
-18z m-1744 -392 c0 -7 2 -21 4 -31 6 -34 -324 -317 -424 -362 -29 -14 -59
-25 -65 -25 -17 0 -119 141 -109 150 4 4 51 24 103 45 177 69 365 160 455 222
24 16 35 17 36 1z m-752 -244 c15 -9 48 -46 72 -82 24 -36 112 -133 195 -216
83 -83 154 -161 158 -172 8 -27 -29 -54 -74 -54 -46 0 -178 74 -251 141 -67
63 -101 89 -108 84 -5 -2 -20 -38 -35 -80 -29 -80 -26 -104 14 -125 17 -9 22
-7 30 15 6 15 10 35 10 46 0 25 12 24 47 -5 15 -13 68 -49 116 -81 49 -31 87
-58 85 -60 -3 -2 -543 -308 -674 -381 l-45 -25 -14 34 c-52 125 -228 714 -248
828 -35 208 31 130 253 -296 69 -133 142 -255 152 -255 21 0 17 33 -11 106
-17 44 -31 85 -31 92 0 21 32 78 136 243 53 85 110 175 126 201 16 26 37 49
46 51 9 3 19 5 20 6 2 0 16 -6 31 -15z m521 -191 c31 -80 70 -195 70 -204 0
-4 -21 -19 -46 -34 l-45 -27 -32 38 c-18 21 -50 59 -72 84 -86 98 -83 81 -18
131 67 52 94 68 110 69 6 0 21 -26 33 -57z m580 -105 c11 -12 20 -28 20 -35 0
-32 -32 -82 -90 -143 -127 -133 -268 -338 -365 -532 -29 -59 -69 -119 -99
-152 -50 -54 -189 -156 -211 -156 -24 0 -44 -37 -54 -99 -8 -46 -19 -75 -40
-102 -22 -26 -43 -80 -75 -186 -39 -131 -47 -148 -65 -146 -11 2 -112 26 -223
54 -112 28 -211 52 -222 55 -10 2 -21 5 -23 7 -9 10 32 147 64 214 l35 71 -76
152 c-42 83 -76 159 -76 168 0 11 73 62 211 147 116 72 258 160 317 197 206
129 240 148 278 154 58 9 120 42 147 78 14 17 44 41 68 53 24 12 105 51 179
87 74 35 158 80 185 99 59 41 87 45 115 15z m3285 -1145 c-8 -99 -14 -169 -20
-248 -3 -38 -11 -75 -18 -82 -7 -6 -131 -53 -277 -103 -146 -50 -367 -127
-491 -171 -124 -43 -232 -79 -241 -79 -8 0 -29 26 -47 58 -17 31 -43 77 -57
102 -14 25 -46 80 -70 122 -24 42 -44 81 -44 87 0 12 0 12 665 206 314 92 575
168 580 170 24 8 26 2 20 -62z m-4502 -434 c128 -34 300 -79 382 -100 226 -59
255 -68 255 -82 0 -7 -19 -75 -43 -152 -43 -139 -43 -140 -73 -139 -33 1 -155
15 -249 29 -65 10 -86 13 -175 25 -89 12 -104 14 -185 25 -27 4 -59 9 -70 10
-124 17 -194 27 -211 30 -12 2 -48 6 -80 10 -33 4 -76 11 -97 16 -33 9 -37 13
-33 37 7 46 16 125 22 187 4 60 7 81 19 186 l7 57 150 -39 c82 -21 254 -66
381 -100z m2002 77 c137 -52 247 -117 320 -191 75 -75 105 -126 136 -233 27
-93 31 -184 12 -259 l-15 -63 -97 99 c-83 84 -110 105 -182 139 -152 72 -352
102 -524 79 -300 -41 -479 -102 -687 -235 -60 -38 -245 -202 -370 -327 -14
-14 4 62 27 112 65 144 286 420 464 580 112 100 268 206 343 234 86 32 267 81
322 88 89 11 181 3 251 -23z m2371 -204 l82 -86 -21 -43 -21 -43 28 -53 c24
-43 28 -60 22 -90 -4 -20 -10 -38 -14 -41 -4 -2 -39 4 -77 15 -82 23 -105 24
-129 6 -17 -12 -6 -20 108 -76 146 -72 153 -81 131 -163 -7 -29 -16 -70 -19
-90 -3 -20 -19 -63 -35 -95 -16 -32 -47 -101 -69 -153 -22 -52 -54 -125 -71
-163 -36 -77 -84 -218 -76 -225 2 -2 0 -12 -4 -21 -19 -35 -89 -374 -106 -516
-4 -27 -9 -63 -11 -80 -3 -16 -7 -47 -9 -67 -7 -65 -23 -111 -84 -239 -63
-133 -71 -172 -76 -357 -1 -40 -6 -76 -11 -81 -5 -5 -43 -21 -84 -36 -41 -15
-86 -34 -100 -41 -14 -7 -61 -28 -105 -47 -44 -19 -100 -44 -125 -55 -105 -49
-397 -174 -416 -179 -30 -7 -42 18 -106 204 l-55 162 22 48 c39 81 74 168 96
240 17 52 33 79 68 114 25 25 58 64 73 87 15 23 31 42 36 42 4 0 8 -30 9 -67
2 -165 51 -330 137 -462 44 -69 77 -103 62 -65 -9 22 -32 129 -42 194 -8 53
-7 234 1 270 3 14 11 52 17 85 15 85 24 95 26 28 2 -83 10 -127 38 -215 20
-59 36 -89 70 -125 l45 -48 -5 60 c-3 33 -8 71 -11 85 -4 14 -8 107 -10 207
-4 151 -1 204 16 305 11 68 21 126 22 131 4 14 121 -70 165 -118 57 -63 86
-109 118 -190 34 -86 46 -91 40 -18 -15 164 -76 312 -173 419 -15 17 -62 59
-103 94 -41 35 -76 67 -78 71 -3 8 144 4 262 -6 33 -3 97 -20 143 -39 46 -18
83 -30 83 -26 0 5 -20 35 -45 68 -76 102 -168 167 -295 212 -36 13 -69 26 -73
30 -5 4 -11 33 -13 64 -2 30 -20 106 -40 168 -20 63 -36 132 -35 156 0 23 14
82 32 130 47 133 47 147 2 217 -70 109 -70 109 -23 177 45 64 62 108 50 129
-10 15 5 49 21 49 10 0 470 171 572 213 32 13 66 24 75 24 8 0 53 -39 98 -85z
m-1565 -121 c144 -44 183 -62 245 -115 53 -47 234 -276 234 -297 0 -6 -19 2
-42 16 -24 14 -87 49 -142 76 -124 63 -198 78 -374 76 -80 -1 -137 2 -142 8
-4 6 -11 51 -14 100 -4 50 -7 101 -9 115 -2 20 4 27 33 37 56 19 110 15 211
-16z m-786 -211 c135 -27 282 -123 368 -239 40 -54 42 -59 41 -128 0 -62 -5
-82 -38 -148 -55 -112 -173 -227 -336 -330 -228 -144 -337 -172 -805 -210 -33
-2 -91 -7 -130 -10 -38 -3 -77 -8 -85 -10 -8 -2 -44 -7 -80 -10 -113 -11 -182
-26 -231 -50 -46 -24 -129 -107 -129 -130 0 -7 -7 -18 -15 -25 -13 -11 -15 -7
-15 24 0 79 77 179 177 229 71 36 126 51 358 102 116 25 251 55 300 67 230 54
551 200 624 283 50 58 76 156 52 194 -7 11 -21 3 -68 -36 -32 -27 -78 -64
-103 -80 -46 -31 -164 -93 -177 -93 -5 -1 -37 -10 -73 -21 -69 -21 -262 -66
-320 -75 -19 -3 -57 -9 -85 -14 -55 -10 -112 -16 -220 -25 -208 -18 -465 -104
-580 -195 -27 -21 -51 -37 -53 -36 -3 4 21 59 41 91 147 240 182 288 305 406
232 224 452 364 682 433 109 32 134 36 255 42 55 3 104 6 109 8 24 6 179 -3
231 -14z m-2287 -4 c15 -2 77 -11 137 -21 61 -9 126 -19 145 -21 43 -6 265
-39 329 -49 34 -6 38 -12 49 -80 5 -33 24 -142 42 -243 l32 -182 -24 -33 c-53
-68 -173 -335 -243 -537 -35 -103 -47 -154 -51 -215 -2 -44 -6 -95 -8 -112 -2
-18 0 -33 3 -33 4 0 31 48 60 108 58 117 178 304 200 310 8 3 11 0 7 -7 -14
-21 -14 -186 -1 -261 7 -41 16 -99 20 -129 4 -30 11 -64 15 -75 41 -102 201
-255 242 -230 5 4 1 15 -10 28 -28 30 -38 55 -41 101 l-3 40 54 -55 c37 -37
82 -69 140 -98 91 -45 93 -47 112 -135 12 -51 6 -264 -9 -337 -3 -14 -8 -47
-11 -75 l-5 -50 58 62 c56 60 102 116 133 163 8 13 24 33 35 46 l20 23 68 -39
c38 -22 98 -70 133 -106 74 -75 76 -86 27 -169 -41 -70 -46 -96 -28 -171 26
-112 23 -129 -35 -170 -34 -24 -50 -43 -50 -58 0 -12 -6 -31 -14 -41 -13 -19
-17 -18 -122 17 -60 20 -158 48 -219 63 -60 15 -114 30 -119 35 -5 5 -9 24 -8
41 0 21 -10 47 -29 73 -28 40 -29 42 -18 104 16 89 13 93 -133 194 -22 15 -54
38 -71 52 -91 72 -308 229 -427 309 -150 101 -161 110 -214 184 -42 59 -42 68
-1 168 36 89 24 96 -50 30 -27 -25 -56 -45 -63 -45 -24 0 -112 42 -113 54 0 6
-2 19 -4 29 -2 10 5 65 16 124 10 58 20 118 20 132 2 24 -8 234 -16 376 -6 96
-17 401 -18 515 -2 97 -4 109 -33 160 -26 47 -59 160 -35 122 5 -9 12 9 21 50
6 35 14 66 16 69 3 6 22 5 92 -5z m3142 -110 c63 -9 124 -38 294 -139 100 -60
127 -81 163 -130 38 -53 51 -77 39 -77 -2 0 -56 27 -121 59 -133 68 -306 128
-420 146 -70 11 -26 -14 96 -55 149 -49 178 -64 279 -134 136 -96 223 -189
269 -288 37 -79 50 -118 54 -163 2 -18 -3 -20 -53 -17 -130 7 -387 104 -515
195 -48 34 -97 69 -109 77 -37 25 -159 127 -207 172 -64 60 -93 132 -84 207 4
31 7 74 8 96 0 22 4 45 8 50 9 12 212 12 299 1z m-345 -326 c20 -38 99 -118
239 -240 60 -52 114 -100 120 -105 42 -39 117 -93 146 -106 85 -39 285 -80
511 -105 57 -6 146 -31 153 -43 3 -4 -86 -7 -197 -6 -111 0 -243 -4 -293 -8
-79 -8 -103 -6 -165 11 -193 53 -358 142 -476 255 -72 69 -97 122 -97 206 0
50 28 171 39 171 2 0 11 -14 20 -30z m0 -459 c31 -39 60 -71 64 -71 3 0 22
-13 41 -30 62 -53 274 -197 335 -228 84 -43 190 -80 253 -88 42 -5 58 -13 82
-41 36 -41 36 -43 7 -96 -21 -39 -27 -80 -14 -93 18 -18 106 124 110 176 2 32
14 41 48 35 32 -6 33 -11 19 -57 -28 -96 -102 -213 -152 -239 -10 -6 -40 -12
-66 -15 -69 -8 -68 -7 -107 -83 -53 -105 -135 -181 -263 -243 -57 -27 -101
-55 -99 -61 9 -28 35 -30 96 -10 l62 21 -5 -34 c-11 -66 -98 -243 -165 -334
-27 -38 -93 -104 -132 -133 -80 -61 -308 -146 -438 -163 -25 -3 -49 -8 -54
-11 -10 -6 -186 -5 -215 1 -36 8 -160 78 -203 114 -23 20 -52 61 -70 97 -62
129 -248 326 -405 431 -125 82 -189 146 -227 228 -27 56 -34 61 -102 72 -65
10 -93 31 -139 102 -55 87 -114 205 -121 245 -13 68 26 108 182 186 123 62
230 90 363 96 103 4 159 8 270 20 19 2 67 7 105 10 171 16 320 67 509 174 21
12 40 20 43 18 4 -4 -38 -42 -160 -146 -27 -23 -45 -42 -40 -42 60 -8 159 13
242 53 81 39 164 119 216 210 l39 68 17 -34 c9 -18 42 -65 74 -105z m-1155
108 c-74 -19 -393 -81 -479 -94 -72 -11 -206 -64 -278 -111 -77 -49 -83 -51
-83 -26 0 26 24 55 62 74 154 78 253 108 403 123 77 7 379 45 382 48 1 2 17 3
35 4 19 1 2 -7 -42 -18z m2059 -390 c36 -15 48 -25 39 -30 -7 -5 -83 -7 -168
-6 -144 3 -159 5 -210 30 l-55 26 60 -5 c33 -3 87 -1 120 5 82 13 153 7 214
-20z m-97 -606 c-6 -26 -16 -79 -23 -117 -15 -90 -28 -69 -36 63 l-6 98 29 10
c40 14 48 3 36 -54z m-2290 -240 c24 -22 23 -34 -12 -103 -33 -66 -42 -74 -35
-32 5 25 12 96 14 135 1 21 9 22 33 0z m544 -478 c29 -44 65 -92 81 -107 42
-40 194 -128 222 -128 39 0 20 -8 -34 -15 -96 -12 -244 -43 -257 -54 -4 -4 -3
-13 2 -21 10 -16 32 -16 278 -5 72 3 132 3 132 1 0 -3 -24 -12 -53 -20 -77
-22 -294 -127 -375 -181 -38 -25 -74 -57 -81 -71 -9 -20 -16 -23 -38 -18 -63
15 -69 25 -69 115 1 60 -3 88 -14 103 -32 43 -25 77 29 136 60 65 67 83 48
130 -17 45 -16 59 18 159 32 97 31 97 111 -24z m1317 -68 c52 -134 54 -143 32
-174 -17 -24 -20 -74 -9 -145 8 -57 -8 -88 -56 -108 -29 -12 -37 -10 -113 28
-45 22 -148 62 -229 88 -117 38 -148 52 -148 66 0 10 7 18 15 18 23 0 323 -78
386 -100 70 -25 69 -26 69 10 0 43 -34 73 -111 98 -75 25 -103 31 -184 38 -33
4 -61 7 -63 9 -1 1 30 19 70 40 104 53 137 80 213 173 37 45 70 82 74 82 3 0
28 -55 54 -123z m-596 -239 c-14 -9 -132 -10 -164 -2 -13 4 -23 12 -23 19 0 9
24 13 82 14 45 1 85 4 87 7 3 3 11 -3 18 -12 10 -14 10 -19 0 -26z m119 -129
c68 -28 124 -52 124 -54 0 -1 -46 -40 -102 -86 -57 -46 -105 -86 -108 -89 -3
-3 -26 -24 -53 -47 l-47 -41 -154 78 c-85 43 -196 92 -248 109 -91 29 -92 30
-63 41 17 7 82 31 145 55 63 24 131 50 151 59 26 11 55 13 111 9 47 -4 82 -2
94 5 10 6 20 12 22 12 2 0 59 -23 128 -51z m-633 -204 c42 -20 77 -38 77 -40
0 -1 -56 12 -125 29 -69 17 -125 34 -125 37 0 13 47 26 70 19 14 -4 60 -25
103 -45z m321 -251 c20 -19 20 -29 0 -63 -27 -46 -184 -140 -184 -110 0 28 54
146 76 167 30 26 85 30 108 6z m493 -29 c72 -47 -20 -271 -134 -329 -61 -31
-119 -15 -126 33 -6 38 20 146 47 200 55 107 138 144 213 96z"/>
<path d="M5886 4754 c-34 -34 -35 -82 -3 -112 51 -48 127 -4 127 73 0 62 -77
85 -124 39z"/>
<path d="M1157 4358 c-27 -10 -65 -69 -61 -95 1 -7 2 -25 3 -39 0 -15 15 -40
35 -60 29 -29 39 -34 67 -29 39 7 55 19 75 56 19 37 18 80 -3 124 -21 45 -64
61 -116 43z"/>
<path d="M3723 2795 c-9 -24 5 -131 21 -163 24 -47 77 -91 133 -112 30 -11 58
-20 63 -20 6 0 11 -7 11 -15 2 -18 3 -22 12 -55 7 -29 52 -54 125 -71 26 -5
65 -18 87 -29 22 -10 71 -20 108 -23 63 -4 71 -2 100 22 123 101 193 168 185
177 -4 4 -47 -13 -95 -38 -96 -50 -129 -58 -247 -63 -85 -4 -132 9 -173 47
-28 26 -31 53 -5 43 34 -14 161 -14 223 1 56 12 237 71 248 80 6 6 -21 34 -28
30 -24 -15 -324 -23 -421 -11 -227 26 -261 43 -284 140 -14 60 -49 94 -63 60z"/>
<path d="M3515 2725 c-25 -36 -60 -72 -77 -81 -33 -17 -41 -17 -243 10 -60 8
-157 18 -215 22 -58 3 -113 8 -122 9 -24 5 -135 -84 -159 -127 -8 -14 -5 -16
13 -12 161 35 290 29 605 -27 76 -14 107 -41 129 -113 35 -116 29 -227 -15
-259 -27 -20 -61 -69 -55 -78 3 -5 9 -7 14 -4 14 9 75 -20 96 -46 43 -54 97
-89 137 -89 56 0 73 13 124 93 54 86 80 116 111 128 29 11 28 32 -2 49 -38 20
-78 -2 -148 -81 -34 -38 -68 -71 -76 -74 -9 -3 -32 12 -58 39 l-44 43 16 39
c32 76 10 226 -46 317 l-30 48 36 31 c56 50 101 153 87 206 -9 36 -29 26 -78
-43z"/>
<path d="M2311 2556 c-19 -22 -16 -81 5 -117 11 -19 40 -47 63 -63 24 -16 52
-44 63 -62 23 -39 35 -38 32 3 -1 15 -3 34 -3 40 -1 7 -16 28 -33 47 -18 19
-41 58 -52 87 -26 74 -50 95 -75 65z"/>
<path d="M2828 2456 c-26 -7 -54 -19 -63 -26 -16 -13 -15 -15 4 -31 15 -12 29
-15 49 -10 15 4 33 6 40 5 6 -1 20 -2 30 -3 10 0 39 -15 64 -31 67 -45 112
-46 197 -5 62 30 105 40 206 48 29 3 25 29 -6 44 -39 19 -80 21 -162 8 -79
-12 -160 -11 -246 5 -64 12 -54 12 -113 -4z"/>
<path d="M3905 1929 c-27 -10 -84 -20 -125 -24 -47 -5 -89 -15 -113 -29 l-37
-21 -59 32 c-78 43 -136 48 -191 17 -25 -15 -58 -24 -83 -24 -26 0 -53 -8 -74
-22 -39 -27 -40 -32 -11 -52 33 -23 100 -19 168 9 75 31 95 31 156 -1 63 -34
103 -34 184 -2 96 39 157 52 183 41 13 -6 35 -6 55 -1 37 10 43 37 15 71 -18
22 -19 22 -68 6z"/>
<path d="M3708 1755 c-2 -2 -30 -5 -63 -9 -136 -13 -247 -60 -276 -116 -27
-53 -34 -139 -15 -185 13 -31 18 -35 31 -25 8 7 20 31 25 54 27 105 51 129
168 176 76 30 89 32 153 26 39 -3 86 -13 106 -21 44 -18 63 -19 63 -2 0 16
-45 59 -80 78 -22 11 -106 29 -112 24z"/>
<path d="M5536 655 c-30 -20 -44 -24 -80 -19 -40 6 -45 4 -68 -27 -20 -28 -45
-106 -64 -204 -1 -5 -18 -75 -39 -155 -45 -178 -41 -198 40 -190 32 3 64 42
70 85 3 22 8 51 10 65 3 14 7 41 10 60 3 19 8 37 11 39 6 6 41 -32 99 -104
120 -152 217 -200 279 -139 14 15 26 35 26 45 0 24 -34 59 -57 59 -21 1 -74
47 -127 113 l-39 47 51 49 c55 53 72 94 72 176 0 57 -17 88 -60 110 -43 22
-92 19 -134 -10z m64 -115 c13 -21 -9 -66 -48 -101 -43 -39 -101 -74 -109 -65
-10 9 17 100 40 133 12 18 31 36 42 41 26 12 65 8 75 -8z"/>
<path d="M2460 655 c-8 -10 -31 -15 -64 -15 -91 -1 -165 -52 -241 -165 -72
-109 -103 -295 -61 -373 36 -69 119 -76 233 -21 115 55 208 163 253 290 41
117 31 196 -31 261 -38 40 -68 48 -89 23z m-8 -146 c37 -20 31 -114 -13 -202
-60 -116 -183 -184 -234 -127 -26 29 -13 129 29 217 35 72 65 106 106 121 27
10 85 5 112 -9z"/>
<path d="M1821 633 c-57 -20 -156 -119 -198 -199 -69 -130 -88 -234 -57 -301
35 -73 77 -77 229 -22 116 42 179 81 199 122 33 71 0 83 -110 41 -201 -77
-222 -68 -174 70 50 148 130 213 226 186 42 -12 46 -11 68 9 26 25 37 53 27
68 -26 41 -131 54 -210 26z"/>
<path d="M4555 628 c-57 -12 -102 -47 -126 -96 -29 -59 -17 -95 66 -209 84
-113 93 -132 74 -144 -26 -17 -56 -9 -116 30 -38 24 -64 50 -72 70 -11 26 -19
31 -47 31 -27 0 -36 -6 -49 -30 -9 -18 -13 -40 -9 -55 13 -51 122 -122 232
-150 95 -25 161 -4 187 58 23 55 10 88 -85 216 -85 114 -93 131 -74 152 24 27
65 29 114 7 57 -27 61 -27 83 -10 34 29 16 81 -36 109 -45 23 -95 31 -142 21z"/>
<path d="M3183 601 c-30 -19 -98 -94 -197 -218 -57 -72 -79 -84 -70 -40 2 12
7 67 10 122 6 90 5 102 -13 124 -18 23 -23 24 -51 12 -38 -16 -67 -52 -187
-236 -53 -83 -121 -179 -150 -215 -62 -77 -71 -104 -44 -131 24 -24 51 -24 77
-2 11 10 59 72 107 138 48 66 91 124 96 129 5 6 8 -26 7 -71 -2 -68 1 -85 16
-102 45 -50 118 -3 246 159 19 24 47 58 62 75 l27 30 -2 -136 c-2 -122 0 -139
17 -158 34 -37 117 -22 138 25 10 22 9 32 -11 66 -27 48 -29 96 -6 206 30 150
25 209 -19 230 -18 8 -30 7 -53 -7z"/>
<path d="M5058 615 c-2 -2 -18 -5 -36 -8 -41 -7 -79 -30 -86 -54 -3 -10 -21
-27 -40 -37 -36 -19 -48 -43 -82 -161 -9 -33 -26 -87 -36 -120 -11 -33 -22
-81 -25 -107 -5 -44 -4 -48 18 -57 26 -9 41 -8 139 15 36 8 105 18 153 21 78
5 90 9 104 29 20 31 13 66 -17 81 -22 11 -181 12 -230 1 -11 -2 -14 4 -12 22
2 14 7 28 11 32 3 4 41 10 84 13 95 6 148 29 159 69 14 57 1 60 -182 44 -25
-2 -27 5 -10 49 10 26 22 48 26 49 5 2 56 4 115 7 112 4 170 22 195 62 25 39
5 47 -125 50 -66 1 -122 1 -123 0z"/>
</g>
</svg>
